<?xml version="1.0" encoding="utf-8"?>
<!DOCTYPE svg PUBLIC "-//W3C//DTD SVG 1.1//EN" "http://www.w3.org/Graphics/SVG/1.1/DTD/svg11.dtd">
<svg version="1.1"
	 id="svg2" xmlns:dc="http://purl.org/dc/elements/1.1/" xmlns:cc="http://creativecommons.org/ns#" xmlns:rdf="http://www.w3.org/1999/02/22-rdf-syntax-ns#" xmlns:svg="http://www.w3.org/2000/svg" xmlns:sodipodi="http://sodipodi.sourceforge.net/DTD/sodipodi-0.dtd" xmlns:inkscape="http://www.inkscape.org/namespaces/inkscape" sodipodi:docname="VividCortex_logo_PMS.eps" inkscape:version="0.48.2 r9819"
	 xmlns="http://www.w3.org/2000/svg" xmlns:xlink="http://www.w3.org/1999/xlink" x="0px" y="0px" width="93.509px"
	 height="82.234px" viewBox="-23.844 -345.934 93.509 82.234" enable-background="new -23.844 -345.934 93.509 82.234"
	 xml:space="preserve">
<sodipodi:namedview  inkscape:cy="33.654872" inkscape:cx="179.36517" inkscape:zoom="3.4227988" fit-margin-left="0" fit-margin-top="3" showgrid="false" guidetolerance="10" gridtolerance="10" objecttolerance="10" borderopacity="1" pagecolor="#ffffff" bordercolor="#666666" id="namedview4" inkscape:window-maximized="0" inkscape:current-layer="g10" inkscape:window-y="0" inkscape:window-x="104" fit-margin-bottom="0" fit-margin-right="3" inkscape:window-height="893" inkscape:window-width="1495" inkscape:pageshadow="2" inkscape:pageopacity="0">
	</sodipodi:namedview>
<g id="g3100" transform="matrix(0.2118982,0,0,0.2118982,-2.7289841,0.60372717)">
	<path id="path44" inkscape:connector-curvature="0" fill="#41C0D3" d="M189.958-1621.715l-56.272,97.33l171.649-97.33H189.958"/>
	<path id="path46" inkscape:connector-curvature="0" fill="#41C0D3" d="M142.143-1515.486h115.529l55.032-96.722L142.143-1515.486"
		/>
	<path id="path48" inkscape:connector-curvature="0" fill="#4E4E55" d="M126.893-1494.65v210.712l60.055-103.423L126.893-1494.65"/>
	<path id="path50" inkscape:connector-curvature="0" fill="#4E4E55" d="M115.118-1494.65v210.712l-60.06-103.423L115.118-1494.65"/>
	<path id="path52" inkscape:connector-curvature="0" fill="#0B8EAE" d="M251.239-1503.816H136.023l56.465,102.736L251.239-1503.816"
		/>
	<path id="path54" inkscape:connector-curvature="0" fill="#FFFFFF" d="M-9.486-1503.577h0.028l0.456-0.235h114.387L48.92-1401.076
		L-9.486-1503.577z M-70.698-1612.198l170.566,96.717H-15.666L-70.698-1612.198z M52.044-1621.715l56.271,97.33l-171.644-97.33
		H52.044z M115.118-1283.993l-60.06-103.367l60.06-107.289V-1283.993z M126.893-1494.65l60.055,107.289l-60.055,103.367V-1494.65
		L126.893-1494.65z M189.958-1621.715h115.377l-171.649,97.33L189.958-1621.715z M257.668-1515.486h-115.53l170.561-96.722
		L257.668-1515.486z M250.893-1503.577l-58.405,102.501l-56.465-102.736h114.995l-0.143,0.235H250.893z M121.169-1247.885
		l220.478-387.513H182.063L121.192-1530.1h-0.383l-60.871-105.298H-99.645l220.477,387.513v0.572l0.175-0.281l0.161,0.281V-1247.885
		"/>
	<path id="path56" inkscape:connector-curvature="0" fill="#0B8EAE" d="M-9.827-1503.816h115.216l-56.465,102.736L-9.827-1503.816"
		/>
	<path id="path58" inkscape:connector-curvature="0" fill="#41C0D3" d="M99.868-1515.486H-15.666l-55.032-96.722L99.868-1515.486"/>
	<path id="path60" inkscape:connector-curvature="0" fill="#41C0D3" d="M52.044-1621.715l56.271,97.33l-171.644-97.33H52.044"/>
</g>
</svg>
