<svg width="94" height="76" viewBox="0 0 94 76" xmlns="http://www.w3.org/2000/svg">
  <g fill="none">
    <g fill="#F99E1E">
        <path d="M44.8 35.4C45 35.3 45.3 35.3 45.6 35.2 51.5 33.5 57.4 31.2 63.1 28.8 68.8 26.4 74.4 23.6 79.3 19.6 84.3 15.5 88.4 10.1 90.6 3.6 90.9 2.6 91.6 1.3 91.6 0.3 83.8 11 52.6 12.1 52.6 12.1L60 5.4C30.5 5.5 9.8 18 0.4 24.7 12.5 26 23.4 31.1 32 38.8 36.2 37.5 40.5 36.6 44.8 35.4Z"/>
        <path d="M93.6 34.4C93.6 34.4 64.9 32.2 35 41.8 39 45.9 42.3 50.6 44.9 55.8 60.6 47.1 82.3 35.9 93.6 34.4Z"/>
        <path d="M46.8 60.3C48.7 65 49.9 70 50.4 75.2L77.8 47.1 46.8 60.3Z"/>
      <path d="M61.2 74.1L61.2 73.8C61.2 73.7 61.2 73.6 61.1 73.5 61 73.4 60.9 73.3 60.8 73.3 60.8 73.3 60.8 73.3 60.8 73.3 60.9 73.3 60.9 73.3 61 73.2 61.2 73.1 61.3 73 61.3 72.8 61.3 72.5 61.1 72.3 60.9 72.2 60.8 72.2 60.6 72.1 60.3 72.1L59.6 72.2 59.6 74.3 60 74.2 60 73.5 60.2 73.5C60.4 73.5 60.6 73.5 60.6 73.5 60.7 73.6 60.8 73.7 60.8 74L60.8 74.1 60.8 74.3 61.3 74.3 61.2 74.2 61.2 74.1ZM60 72.5L60.3 72.5C60.5 72.5 60.6 72.5 60.7 72.5 60.8 72.6 60.8 72.7 60.8 72.8 60.8 73 60.8 73.1 60.6 73.1 60.6 73.1 60.4 73.1 60.3 73.1L60 73.2 60 72.5Z"/>
      <path d="M61.7 71.9C61.3 71.5 60.9 71.3 60.4 71.3 59.8 71.3 59.4 71.5 59 71.9 58.6 72.2 58.4 72.7 58.4 73.2 58.4 73.8 58.6 74.2 59 74.6 59.4 75 59.8 75.2 60.4 75.2 60.9 75.2 61.3 75 61.7 74.6 62.1 74.2 62.3 73.8 62.3 73.2 62.3 72.7 62.1 72.2 61.7 71.9ZM60.3 74.8C59.9 74.8 59.5 74.7 59.2 74.4 58.9 74.1 58.8 73.7 58.8 73.2 58.8 72.8 58.9 72.4 59.2 72.1 59.5 71.8 59.9 71.6 60.3 71.6 60.8 71.6 61.2 71.8 61.5 72.1 61.8 72.4 61.9 72.8 61.9 73.2 61.9 73.7 61.8 74.1 61.5 74.4 61.2 74.7 60.8 74.8 60.3 74.8Z"/>
    </g>
  </g>
</svg>